<svg xmlns="http://www.w3.org/2000/svg" viewBox="0 0 18.22 18.22"><defs><style>.cls-1{fill:#39579a;}</style></defs><title>facebook</title><g id="Layer_2" data-name="Layer 2"><g id="Layer_1-2" data-name="Layer 1"><path class="cls-1" d="M9.61,18.22H2.71l-.29-.11A3.31,3.31,0,0,1,0,14.91q0-5.8,0-11.6A3.3,3.3,0,0,1,3.31,0Q9.13,0,14.95,0A3.3,3.3,0,0,1,18.1,2.39c0,.11.08.21.12.32V15.52c0,.1-.08.19-.11.29a3.28,3.28,0,0,1-2.27,2.29l-.32.12h-3.2V11.09H15l.11-2.56H12.33c0-.75,0-1.47,0-2.19,0-.51.31-.76.83-.79H15V3.08c-.77,0-1.53-.05-2.28,0a3.1,3.1,0,0,0-3,2.15,4.55,4.55,0,0,0-.18,1.22c0,.68,0,1.37,0,2.09H7.76v2.56H9.61Z"/></g></g></svg>