<svg xmlns="http://www.w3.org/2000/svg" viewBox="0 0 18.12 18.09"><defs><style>.cls-1{fill:#cb1814;}</style></defs><title>pinterest</title><g id="Layer_2" data-name="Layer 2"><g id="Layer_1-2" data-name="Layer 1"><path class="cls-1" d="M6.7,17.72l1.4-4.27a2.9,2.9,0,0,0,2.57,1,4.14,4.14,0,0,0,2.89-1.49,6.47,6.47,0,0,0,1.37-6.07,5,5,0,0,0-4.4-3.72A6.46,6.46,0,0,0,4.21,5.28a5.06,5.06,0,0,0-1,5.13A2.78,2.78,0,0,0,4.5,12c.49.28.67.2.83-.33a1.42,1.42,0,0,0-.19-1.28,3.44,3.44,0,0,1,.07-3.5,4.55,4.55,0,0,1,6.18-1.76,2.88,2.88,0,0,1,1.44,2A6.28,6.28,0,0,1,12,11.65a2.27,2.27,0,0,1-1.75,1.18,1.39,1.39,0,0,1-1.56-1.77c.18-.74.43-1.46.62-2.2a4,4,0,0,0,.15-1.08,1.23,1.23,0,0,0-1.94-1,2.12,2.12,0,0,0-1,1.75,9.82,9.82,0,0,0,.09,1.37,4.06,4.06,0,0,1,0,1.05c-.32,1.49-.71,3-1,4.45a17.25,17.25,0,0,0-.2,1.84A8.83,8.83,0,0,1,.22,7.07a9.05,9.05,0,1,1,17.38,5A9,9,0,0,1,6.7,17.72Z"/></g></g></svg>