<svg xmlns="http://www.w3.org/2000/svg" viewBox="0 0 18.29 18.29"><defs><style>.cls-1{fill:#19abf0;}</style></defs><title>twitter</title><g id="Layer_2" data-name="Layer 2"><g id="Layer_1-2" data-name="Layer 1"><path class="cls-1" d="M9.12,18.29H3.39A3.41,3.41,0,0,1,0,14.9Q0,9.14,0,3.39A3.41,3.41,0,0,1,3.39,0H14.9a3.41,3.41,0,0,1,3.39,3.39q0,5.75,0,11.51a3.42,3.42,0,0,1-3.39,3.39ZM7.18,11.85a4.62,4.62,0,0,1-3.27.94l.23.15A6.37,6.37,0,0,0,13.68,7.6a1,1,0,0,1,.39-.84A6.74,6.74,0,0,0,14.8,6l-1.2.32,0-.05a2.21,2.21,0,0,0,.89-1.12l-1.2.42a.29.29,0,0,1-.32-.08A2.15,2.15,0,0,0,10.69,5,2.12,2.12,0,0,0,9.23,6.78a5.79,5.79,0,0,0,0,.86A6.46,6.46,0,0,1,4.61,5.31,2.2,2.2,0,0,0,4.37,6.9a2.29,2.29,0,0,0,.89,1.35l0,.06-.93-.25A2.29,2.29,0,0,0,6,10.23v.06l-.91,0A2.32,2.32,0,0,0,7.18,11.85Z"/></g></g></svg>